<?xml version="1.0" encoding="UTF-8"?><svg xmlns="http://www.w3.org/2000/svg" viewBox="0 0 24 24" width="16" height="16"><path fill="white" d="M19.5 18.75a.5.5 0 01-.5.5h-6.5a.5.5 0 01-.5-.5v-1.5c.03-1.75.2-3.5.6-4.25.25-.5.65-.75 1.1-.85.85-.25 2.35-.1 3-.1 0 0 2 .05 2-1s-.85-.8-.85-.8c-.95 0-1.65-.05-2.15-.2-.75-.3-.8-.85-.8-1.05-.05-2.15-3.25-2.4-6-1.85-3.1.6 0 5 0 11v.75a.5.5 0 01-.5.5H6.5a.5.5 0 01-.5-.5V5.5a.5.5 0 01.5-.5h3a.5.5 0 01.5.5c0 .45.5.65.85.4 1.05-.75 2.4-1.15 4-1.15 3.4 0 6 2 6 6.5v7.9zm-5.75-9.4a.8.8 0 11-1.6 0 .8.8 0 011.6 0z"/></svg>