<svg width="32" height="32" viewBox="0 0 32 32"
    xmlns="http://www.w3.org/2000/svg">
    <path fill="#D4AF37" d="M26.35 24.92c0 .39-.31.71-.71.71h-8.49c-.39 0-.71-.31-.71-.71v-1.93c.04-2.37.29-4.64.81-5.68.31-.63.84-.96 1.44-1.13 1.13-.33 3.11-.11 3.96-.15 0 0 2.55.09 2.55-1.33s-1.13-1.08-1.13-1.08c-1.25.04-2.21-.05-2.83-.29-1.04-.41-1.08-1.15-1.08-1.4-.05-2.88-4.31-3.24-8.05-2.51-4.09.77.05 6.65.05 14.51v1.05c0 .39-.32.69-.71.69h-4.24c-.39 0-.71-.31-.71-.71V7.49c0-.39.31-.71.71-.71h3.96c.39 0 .71.31.71.71 0 .59.65.89 1.12.56 1.43-1.03 3.25-1.56 5.29-1.56 4.57 0 8.04 2.67 8.04 8.59v10.39zm-7.6-12.51c0-.84-.68-1.51-1.51-1.51s-1.51.68-1.51 1.51.68 1.51 1.51 1.51 1.51-.68 1.51-1.51z"/>
</svg>